<mxfile host="app.diagrams.net" modified="2024-05-20T12:28:00.142Z" agent="Mozilla/5.0 (Windows NT 10.0; Win64; x64) AppleWebKit/537.36 (KHTML, like Gecko) Chrome/124.0.0.0 Safari/537.36" etag="cwZIAg7ixGBBXeCRBK0h" version="24.4.4" type="github">
  <diagram id="C5RBs43oDa-KdzZeNtuy" name="Page-1">
    <mxGraphModel dx="1750" dy="870" grid="1" gridSize="10" guides="1" tooltips="1" connect="1" arrows="1" fold="1" page="1" pageScale="1" pageWidth="827" pageHeight="1169" math="0" shadow="0">
      <root>
        <mxCell id="WIyWlLk6GJQsqaUBKTNV-0" />
        <mxCell id="WIyWlLk6GJQsqaUBKTNV-1" parent="WIyWlLk6GJQsqaUBKTNV-0" />
        <mxCell id="R6-TLBc1KQp7JGJJlesL-0" value="CanvasGUI" style="swimlane;fontStyle=1;align=center;verticalAlign=top;childLayout=stackLayout;horizontal=1;startSize=26;horizontalStack=0;resizeParent=1;resizeParentMax=0;resizeLast=0;collapsible=1;marginBottom=0;whiteSpace=wrap;html=1;" vertex="1" parent="WIyWlLk6GJQsqaUBKTNV-1">
          <mxGeometry x="10" y="20" width="270" height="690" as="geometry" />
        </mxCell>
        <mxCell id="R6-TLBc1KQp7JGJJlesL-1" value="+cipher&lt;div&gt;+project_name&lt;/div&gt;&lt;div&gt;+client_socket&lt;/div&gt;&lt;div&gt;+comman_client_socket&lt;/div&gt;&lt;div&gt;+drawings&lt;/div&gt;&lt;div&gt;+deleted_drawings&lt;/div&gt;&lt;div&gt;+mode&lt;/div&gt;&lt;div&gt;+color&lt;/div&gt;&lt;div&gt;+color_changed&lt;/div&gt;&lt;div&gt;+target&lt;/div&gt;&lt;div&gt;+show_target&lt;/div&gt;&lt;div&gt;+root&lt;/div&gt;&lt;div&gt;+canvas&lt;/div&gt;&lt;div&gt;+pick_color_b&lt;/div&gt;&lt;div&gt;+line_width_entry&lt;/div&gt;&lt;div&gt;+window_open&lt;/div&gt;&lt;div&gt;+receive_lock&lt;/div&gt;&lt;div&gt;&lt;br&gt;&lt;/div&gt;" style="text;strokeColor=none;fillColor=none;align=left;verticalAlign=top;spacingLeft=4;spacingRight=4;overflow=hidden;rotatable=0;points=[[0,0.5],[1,0.5]];portConstraint=eastwest;whiteSpace=wrap;html=1;" vertex="1" parent="R6-TLBc1KQp7JGJJlesL-0">
          <mxGeometry y="26" width="270" height="254" as="geometry" />
        </mxCell>
        <mxCell id="R6-TLBc1KQp7JGJJlesL-2" value="" style="line;strokeWidth=1;fillColor=none;align=left;verticalAlign=middle;spacingTop=-1;spacingLeft=3;spacingRight=3;rotatable=0;labelPosition=right;points=[];portConstraint=eastwest;strokeColor=inherit;" vertex="1" parent="R6-TLBc1KQp7JGJJlesL-0">
          <mxGeometry y="280" width="270" height="8" as="geometry" />
        </mxCell>
        <mxCell id="R6-TLBc1KQp7JGJJlesL-3" value="+__init__(self, client_socket, cmmand_client_socket, file_name, shared_key, pwd, exists)&lt;div&gt;+start_drawing(self, event)&lt;/div&gt;&lt;div&gt;+draw(self, event)&lt;/div&gt;&lt;div&gt;+end_drawing(self, *_)&lt;/div&gt;&lt;div&gt;+hide_target(self, *_)&lt;/div&gt;&lt;div&gt;+move_target(self, event)&lt;/div&gt;&lt;div&gt;+set_color(self, color)&lt;/div&gt;&lt;div&gt;+delete_last_drawing(self, *_)&lt;/div&gt;&lt;div&gt;+redo_last_drawing(self, *_)&lt;/div&gt;&lt;div&gt;+width_entry_validation(self, value)&lt;/div&gt;&lt;div&gt;+load_canvas(self)&lt;/div&gt;&lt;div&gt;+create_new_db(self, pwd)&lt;/div&gt;&lt;div&gt;+receive_data(self, client_socket)&lt;/div&gt;&lt;div&gt;+send_to_db(self, d)&lt;/div&gt;&lt;div&gt;+add_drawings(self, drawing)&lt;/div&gt;&lt;div&gt;+add_to_drawings(self, drawing)&lt;/div&gt;&lt;div&gt;+delete_line(self, id_, is_this_user)&lt;br&gt;+get_and_inc_id(self)&lt;/div&gt;&lt;div&gt;+pick_color(self)&lt;br&gt;+start_rect(self, event)&lt;br&gt;+start_oval(self, event)&lt;/div&gt;&lt;div&gt;+update_rect_oval(self, event)&lt;/div&gt;&lt;div&gt;+mouse_pressed(self, event)&lt;/div&gt;&lt;div&gt;+mouse_pressed_moved(self, event)&lt;br&gt;+save_img(self)&lt;/div&gt;" style="text;strokeColor=none;fillColor=none;align=left;verticalAlign=top;spacingLeft=4;spacingRight=4;overflow=hidden;rotatable=0;points=[[0,0.5],[1,0.5]];portConstraint=eastwest;whiteSpace=wrap;html=1;" vertex="1" parent="R6-TLBc1KQp7JGJJlesL-0">
          <mxGeometry y="288" width="270" height="402" as="geometry" />
        </mxCell>
        <mxCell id="R6-TLBc1KQp7JGJJlesL-4" value="SelectProjectGUI" style="swimlane;fontStyle=1;align=center;verticalAlign=top;childLayout=stackLayout;horizontal=1;startSize=26;horizontalStack=0;resizeParent=1;resizeParentMax=0;resizeLast=0;collapsible=1;marginBottom=0;whiteSpace=wrap;html=1;" vertex="1" parent="WIyWlLk6GJQsqaUBKTNV-1">
          <mxGeometry x="380" y="20" width="160" height="178" as="geometry" />
        </mxCell>
        <mxCell id="R6-TLBc1KQp7JGJJlesL-5" value="+self.db_files&lt;div&gt;+self.root&lt;/div&gt;&lt;div&gt;+self.client_socket&lt;/div&gt;&lt;div&gt;+self.command_client_socket)&lt;/div&gt;" style="text;strokeColor=none;fillColor=none;align=left;verticalAlign=top;spacingLeft=4;spacingRight=4;overflow=hidden;rotatable=0;points=[[0,0.5],[1,0.5]];portConstraint=eastwest;whiteSpace=wrap;html=1;" vertex="1" parent="R6-TLBc1KQp7JGJJlesL-4">
          <mxGeometry y="26" width="160" height="74" as="geometry" />
        </mxCell>
        <mxCell id="R6-TLBc1KQp7JGJJlesL-6" value="" style="line;strokeWidth=1;fillColor=none;align=left;verticalAlign=middle;spacingTop=-1;spacingLeft=3;spacingRight=3;rotatable=0;labelPosition=right;points=[];portConstraint=eastwest;strokeColor=inherit;" vertex="1" parent="R6-TLBc1KQp7JGJJlesL-4">
          <mxGeometry y="100" width="160" height="8" as="geometry" />
        </mxCell>
        <mxCell id="R6-TLBc1KQp7JGJJlesL-7" value="&lt;div&gt;+__init__(self)&lt;/div&gt;&lt;div&gt;+open_project(self, name)&lt;/div&gt;&lt;div&gt;+new_project(self)&lt;/div&gt;&lt;div&gt;+init_connection_to_server(self)&lt;/div&gt;" style="text;strokeColor=none;fillColor=none;align=left;verticalAlign=top;spacingLeft=4;spacingRight=4;overflow=hidden;rotatable=0;points=[[0,0.5],[1,0.5]];portConstraint=eastwest;whiteSpace=wrap;html=1;" vertex="1" parent="R6-TLBc1KQp7JGJJlesL-4">
          <mxGeometry y="108" width="160" height="70" as="geometry" />
        </mxCell>
        <mxCell id="R6-TLBc1KQp7JGJJlesL-11" value="NewProjectGUI" style="swimlane;fontStyle=1;align=center;verticalAlign=top;childLayout=stackLayout;horizontal=1;startSize=26;horizontalStack=0;resizeParent=1;resizeParentMax=0;resizeLast=0;collapsible=1;marginBottom=0;whiteSpace=wrap;html=1;" vertex="1" parent="WIyWlLk6GJQsqaUBKTNV-1">
          <mxGeometry x="580" y="20" width="220" height="220" as="geometry" />
        </mxCell>
        <mxCell id="R6-TLBc1KQp7JGJJlesL-12" value="+self.client_socket&lt;div&gt;+self.command_client_socket&lt;/div&gt;&lt;div&gt;+self.db_files&lt;/div&gt;&lt;div&gt;+self.shared_key&lt;/div&gt;&lt;div&gt;+self.root&lt;/div&gt;&lt;div&gt;+self.name_entry&lt;/div&gt;&lt;div&gt;+self.pwd_entry&lt;/div&gt;" style="text;strokeColor=none;fillColor=none;align=left;verticalAlign=top;spacingLeft=4;spacingRight=4;overflow=hidden;rotatable=0;points=[[0,0.5],[1,0.5]];portConstraint=eastwest;whiteSpace=wrap;html=1;" vertex="1" parent="R6-TLBc1KQp7JGJJlesL-11">
          <mxGeometry y="26" width="220" height="114" as="geometry" />
        </mxCell>
        <mxCell id="R6-TLBc1KQp7JGJJlesL-13" value="" style="line;strokeWidth=1;fillColor=none;align=left;verticalAlign=middle;spacingTop=-1;spacingLeft=3;spacingRight=3;rotatable=0;labelPosition=right;points=[];portConstraint=eastwest;strokeColor=inherit;" vertex="1" parent="R6-TLBc1KQp7JGJJlesL-11">
          <mxGeometry y="140" width="220" height="8" as="geometry" />
        </mxCell>
        <mxCell id="R6-TLBc1KQp7JGJJlesL-14" value="&lt;div&gt;+__init__(self, client_socket, command_client_socket, db_files, shared_key)&lt;/div&gt;&lt;div&gt;+button_pressed(self)&lt;/div&gt;" style="text;strokeColor=none;fillColor=none;align=left;verticalAlign=top;spacingLeft=4;spacingRight=4;overflow=hidden;rotatable=0;points=[[0,0.5],[1,0.5]];portConstraint=eastwest;whiteSpace=wrap;html=1;" vertex="1" parent="R6-TLBc1KQp7JGJJlesL-11">
          <mxGeometry y="148" width="220" height="72" as="geometry" />
        </mxCell>
        <mxCell id="R6-TLBc1KQp7JGJJlesL-16" value="Client" style="swimlane;fontStyle=1;align=center;verticalAlign=top;childLayout=stackLayout;horizontal=1;startSize=26;horizontalStack=0;resizeParent=1;resizeParentMax=0;resizeLast=0;collapsible=1;marginBottom=0;whiteSpace=wrap;html=1;" vertex="1" parent="WIyWlLk6GJQsqaUBKTNV-1">
          <mxGeometry x="470" y="1200" width="160" height="288" as="geometry" />
        </mxCell>
        <mxCell id="R6-TLBc1KQp7JGJJlesL-17" value="+self.dir&lt;div&gt;+self.socket&lt;/div&gt;&lt;div&gt;+self.address&lt;/div&gt;&lt;div&gt;+self.shared_key&lt;/div&gt;&lt;div&gt;+self.project&lt;/div&gt;&lt;div&gt;+self.cipher&lt;/div&gt;&lt;div&gt;+self.path&lt;/div&gt;" style="text;strokeColor=none;fillColor=none;align=left;verticalAlign=top;spacingLeft=4;spacingRight=4;overflow=hidden;rotatable=0;points=[[0,0.5],[1,0.5]];portConstraint=eastwest;whiteSpace=wrap;html=1;" vertex="1" parent="R6-TLBc1KQp7JGJJlesL-16">
          <mxGeometry y="26" width="160" height="114" as="geometry" />
        </mxCell>
        <mxCell id="R6-TLBc1KQp7JGJJlesL-18" value="" style="line;strokeWidth=1;fillColor=none;align=left;verticalAlign=middle;spacingTop=-1;spacingLeft=3;spacingRight=3;rotatable=0;labelPosition=right;points=[];portConstraint=eastwest;strokeColor=inherit;" vertex="1" parent="R6-TLBc1KQp7JGJJlesL-16">
          <mxGeometry y="140" width="160" height="8" as="geometry" />
        </mxCell>
        <mxCell id="R6-TLBc1KQp7JGJJlesL-19" value="&lt;div&gt;+__init__(self, socket, address, shared_key, project)&lt;/div&gt;&lt;div&gt;+print_connection(self)&lt;/div&gt;&lt;div&gt;+close(self)&lt;/div&gt;&lt;div&gt;+set_project(self, project_name)&lt;/div&gt;&lt;div&gt;+encrypt(self, msg)&lt;/div&gt;&lt;div&gt;+decrypt(self, msg)&lt;/div&gt;" style="text;strokeColor=none;fillColor=none;align=left;verticalAlign=top;spacingLeft=4;spacingRight=4;overflow=hidden;rotatable=0;points=[[0,0.5],[1,0.5]];portConstraint=eastwest;whiteSpace=wrap;html=1;" vertex="1" parent="R6-TLBc1KQp7JGJJlesL-16">
          <mxGeometry y="148" width="160" height="140" as="geometry" />
        </mxCell>
        <mxCell id="R6-TLBc1KQp7JGJJlesL-20" value="MainServer" style="swimlane;fontStyle=1;align=center;verticalAlign=top;childLayout=stackLayout;horizontal=1;startSize=26;horizontalStack=0;resizeParent=1;resizeParentMax=0;resizeLast=0;collapsible=1;marginBottom=0;whiteSpace=wrap;html=1;" vertex="1" parent="WIyWlLk6GJQsqaUBKTNV-1">
          <mxGeometry x="220" y="1200" width="160" height="250" as="geometry" />
        </mxCell>
        <mxCell id="R6-TLBc1KQp7JGJJlesL-21" value="+self.client_list" style="text;strokeColor=none;fillColor=none;align=left;verticalAlign=top;spacingLeft=4;spacingRight=4;overflow=hidden;rotatable=0;points=[[0,0.5],[1,0.5]];portConstraint=eastwest;whiteSpace=wrap;html=1;" vertex="1" parent="R6-TLBc1KQp7JGJJlesL-20">
          <mxGeometry y="26" width="160" height="26" as="geometry" />
        </mxCell>
        <mxCell id="R6-TLBc1KQp7JGJJlesL-22" value="" style="line;strokeWidth=1;fillColor=none;align=left;verticalAlign=middle;spacingTop=-1;spacingLeft=3;spacingRight=3;rotatable=0;labelPosition=right;points=[];portConstraint=eastwest;strokeColor=inherit;" vertex="1" parent="R6-TLBc1KQp7JGJJlesL-20">
          <mxGeometry y="52" width="160" height="8" as="geometry" />
        </mxCell>
        <mxCell id="R6-TLBc1KQp7JGJJlesL-23" value="&lt;div&gt;+__init__(self)&lt;/div&gt;&lt;div&gt;+handle_client(self, client)&lt;/div&gt;&lt;div&gt;+new_line(self, client, d)&lt;/div&gt;&lt;div&gt;+delete_line(self, client, id_)&lt;/div&gt;&lt;div&gt;+create_new_db(self, client)&lt;/div&gt;&lt;div&gt;+load_canvas_sql(self, client)&lt;/div&gt;&lt;div&gt;+get_projects_names(self, client)&lt;/div&gt;&lt;div&gt;+new_rect_oval(self, client, obj, type_)&lt;/div&gt;" style="text;strokeColor=none;fillColor=none;align=left;verticalAlign=top;spacingLeft=4;spacingRight=4;overflow=hidden;rotatable=0;points=[[0,0.5],[1,0.5]];portConstraint=eastwest;whiteSpace=wrap;html=1;" vertex="1" parent="R6-TLBc1KQp7JGJJlesL-20">
          <mxGeometry y="60" width="160" height="190" as="geometry" />
        </mxCell>
        <mxCell id="R6-TLBc1KQp7JGJJlesL-28" value="CommandServer" style="swimlane;fontStyle=1;align=center;verticalAlign=top;childLayout=stackLayout;horizontal=1;startSize=26;horizontalStack=0;resizeParent=1;resizeParentMax=0;resizeLast=0;collapsible=1;marginBottom=0;whiteSpace=wrap;html=1;" vertex="1" parent="WIyWlLk6GJQsqaUBKTNV-1">
          <mxGeometry x="20" y="1200" width="160" height="114" as="geometry" />
        </mxCell>
        <mxCell id="R6-TLBc1KQp7JGJJlesL-30" value="" style="line;strokeWidth=1;fillColor=none;align=left;verticalAlign=middle;spacingTop=-1;spacingLeft=3;spacingRight=3;rotatable=0;labelPosition=right;points=[];portConstraint=eastwest;strokeColor=inherit;" vertex="1" parent="R6-TLBc1KQp7JGJJlesL-28">
          <mxGeometry y="26" width="160" height="8" as="geometry" />
        </mxCell>
        <mxCell id="R6-TLBc1KQp7JGJJlesL-31" value="&lt;div&gt;+__init__(self)&lt;/div&gt;&lt;div&gt;+handle_client(self, client_socket)&lt;/div&gt;&lt;div&gt;+get_and_inc_id(self, client_socket, project_path)&lt;/div&gt;" style="text;strokeColor=none;fillColor=none;align=left;verticalAlign=top;spacingLeft=4;spacingRight=4;overflow=hidden;rotatable=0;points=[[0,0.5],[1,0.5]];portConstraint=eastwest;whiteSpace=wrap;html=1;" vertex="1" parent="R6-TLBc1KQp7JGJJlesL-28">
          <mxGeometry y="34" width="160" height="80" as="geometry" />
        </mxCell>
        <mxCell id="R6-TLBc1KQp7JGJJlesL-33" value="Rect" style="swimlane;fontStyle=1;align=center;verticalAlign=top;childLayout=stackLayout;horizontal=1;startSize=26;horizontalStack=0;resizeParent=1;resizeParentMax=0;resizeLast=0;collapsible=1;marginBottom=0;whiteSpace=wrap;html=1;" vertex="1" parent="WIyWlLk6GJQsqaUBKTNV-1">
          <mxGeometry x="120" y="1570" width="160" height="248" as="geometry" />
        </mxCell>
        <mxCell id="R6-TLBc1KQp7JGJJlesL-34" value="+self.color&lt;div&gt;+self.width&lt;/div&gt;&lt;div&gt;+self.x1&lt;/div&gt;&lt;div&gt;+self.x2&lt;/div&gt;&lt;div&gt;+self.id&lt;/div&gt;&lt;div&gt;self.id_in_canvas&lt;/div&gt;" style="text;strokeColor=none;fillColor=none;align=left;verticalAlign=top;spacingLeft=4;spacingRight=4;overflow=hidden;rotatable=0;points=[[0,0.5],[1,0.5]];portConstraint=eastwest;whiteSpace=wrap;html=1;" vertex="1" parent="R6-TLBc1KQp7JGJJlesL-33">
          <mxGeometry y="26" width="160" height="104" as="geometry" />
        </mxCell>
        <mxCell id="R6-TLBc1KQp7JGJJlesL-35" value="" style="line;strokeWidth=1;fillColor=none;align=left;verticalAlign=middle;spacingTop=-1;spacingLeft=3;spacingRight=3;rotatable=0;labelPosition=right;points=[];portConstraint=eastwest;strokeColor=inherit;" vertex="1" parent="R6-TLBc1KQp7JGJJlesL-33">
          <mxGeometry y="130" width="160" height="8" as="geometry" />
        </mxCell>
        <mxCell id="R6-TLBc1KQp7JGJJlesL-36" value="&lt;div&gt;+__init__(self, color, width, x1, y1, x2, y2, id_)&lt;/div&gt;&lt;div&gt;+update(self, x2, y2)&lt;/div&gt;&lt;div&gt;+draw(self, canvas)&lt;/div&gt;&lt;div&gt;+delete_from_canvas(self, canvas)&lt;/div&gt;&lt;div&gt;+redraw(self, canvas)&lt;/div&gt;" style="text;strokeColor=none;fillColor=none;align=left;verticalAlign=top;spacingLeft=4;spacingRight=4;overflow=hidden;rotatable=0;points=[[0,0.5],[1,0.5]];portConstraint=eastwest;whiteSpace=wrap;html=1;" vertex="1" parent="R6-TLBc1KQp7JGJJlesL-33">
          <mxGeometry y="138" width="160" height="110" as="geometry" />
        </mxCell>
        <mxCell id="R6-TLBc1KQp7JGJJlesL-38" value="Oval" style="swimlane;fontStyle=1;align=center;verticalAlign=top;childLayout=stackLayout;horizontal=1;startSize=26;horizontalStack=0;resizeParent=1;resizeParentMax=0;resizeLast=0;collapsible=1;marginBottom=0;whiteSpace=wrap;html=1;" vertex="1" parent="WIyWlLk6GJQsqaUBKTNV-1">
          <mxGeometry x="120" y="1870" width="160" height="60" as="geometry" />
        </mxCell>
        <mxCell id="R6-TLBc1KQp7JGJJlesL-40" value="" style="line;strokeWidth=1;fillColor=none;align=left;verticalAlign=middle;spacingTop=-1;spacingLeft=3;spacingRight=3;rotatable=0;labelPosition=right;points=[];portConstraint=eastwest;strokeColor=inherit;" vertex="1" parent="R6-TLBc1KQp7JGJJlesL-38">
          <mxGeometry y="26" width="160" height="8" as="geometry" />
        </mxCell>
        <mxCell id="R6-TLBc1KQp7JGJJlesL-41" value="+draw(self, canvas)" style="text;strokeColor=none;fillColor=none;align=left;verticalAlign=top;spacingLeft=4;spacingRight=4;overflow=hidden;rotatable=0;points=[[0,0.5],[1,0.5]];portConstraint=eastwest;whiteSpace=wrap;html=1;" vertex="1" parent="R6-TLBc1KQp7JGJJlesL-38">
          <mxGeometry y="34" width="160" height="26" as="geometry" />
        </mxCell>
        <mxCell id="R6-TLBc1KQp7JGJJlesL-46" value="" style="endArrow=open;endFill=1;endSize=12;html=1;rounded=0;exitX=0.5;exitY=0;exitDx=0;exitDy=0;" edge="1" parent="WIyWlLk6GJQsqaUBKTNV-1" source="R6-TLBc1KQp7JGJJlesL-38" target="R6-TLBc1KQp7JGJJlesL-36">
          <mxGeometry width="160" relative="1" as="geometry">
            <mxPoint x="240" y="1800" as="sourcePoint" />
            <mxPoint x="400" y="1800" as="targetPoint" />
          </mxGeometry>
        </mxCell>
      </root>
    </mxGraphModel>
  </diagram>
</mxfile>
